<mxfile host="app.diagrams.net" agent="Mozilla/5.0 (Windows NT 10.0; Win64; x64) AppleWebKit/537.36 (KHTML, like Gecko) Chrome/136.0.0.0 Safari/537.36" version="27.0.9">
  <diagram id="C5RBs43oDa-KdzZeNtuy" name="Page-1">
    <mxGraphModel dx="715" dy="518" grid="1" gridSize="10" guides="1" tooltips="1" connect="1" arrows="1" fold="1" page="1" pageScale="1" pageWidth="827" pageHeight="1169" math="0" shadow="0">
      <root>
        <mxCell id="WIyWlLk6GJQsqaUBKTNV-0" />
        <mxCell id="WIyWlLk6GJQsqaUBKTNV-1" parent="WIyWlLk6GJQsqaUBKTNV-0" />
        <mxCell id="WIyWlLk6GJQsqaUBKTNV-2" value="" style="rounded=0;html=1;jettySize=auto;orthogonalLoop=1;fontSize=11;endArrow=block;endFill=0;endSize=8;strokeWidth=1;shadow=0;labelBackgroundColor=none;edgeStyle=orthogonalEdgeStyle;" parent="WIyWlLk6GJQsqaUBKTNV-1" source="WIyWlLk6GJQsqaUBKTNV-3" edge="1">
          <mxGeometry relative="1" as="geometry">
            <mxPoint x="221" y="174" as="targetPoint" />
          </mxGeometry>
        </mxCell>
        <mxCell id="WIyWlLk6GJQsqaUBKTNV-3" value="Users&lt;br&gt;(Voters, Election Officals, Admins" style="rounded=1;whiteSpace=wrap;html=1;fontSize=12;glass=0;strokeWidth=1;shadow=0;" parent="WIyWlLk6GJQsqaUBKTNV-1" vertex="1">
          <mxGeometry x="131" y="80" width="180" height="40" as="geometry" />
        </mxCell>
        <mxCell id="WIyWlLk6GJQsqaUBKTNV-4" value="" style="rounded=0;html=1;jettySize=auto;orthogonalLoop=1;fontSize=11;endArrow=block;endFill=0;endSize=8;strokeWidth=1;shadow=0;labelBackgroundColor=none;edgeStyle=orthogonalEdgeStyle;" parent="WIyWlLk6GJQsqaUBKTNV-1" source="WIyWlLk6GJQsqaUBKTNV-6" target="WIyWlLk6GJQsqaUBKTNV-10" edge="1">
          <mxGeometry y="20" relative="1" as="geometry">
            <mxPoint as="offset" />
          </mxGeometry>
        </mxCell>
        <mxCell id="WIyWlLk6GJQsqaUBKTNV-6" value="Security&lt;br&gt;(IAM, MFA, Biometric, Geo-Validation, WAF)" style="rhombus;whiteSpace=wrap;html=1;shadow=1;fontFamily=Helvetica;fontSize=12;align=center;strokeWidth=1;spacing=6;spacingTop=-4;" parent="WIyWlLk6GJQsqaUBKTNV-1" vertex="1">
          <mxGeometry x="136" y="174" width="170" height="136" as="geometry" />
        </mxCell>
        <mxCell id="KfJ8XzD4UMHYxHxAvCoY-1" style="edgeStyle=orthogonalEdgeStyle;rounded=0;orthogonalLoop=1;jettySize=auto;html=1;" edge="1" parent="WIyWlLk6GJQsqaUBKTNV-1" source="WIyWlLk6GJQsqaUBKTNV-7">
          <mxGeometry relative="1" as="geometry">
            <mxPoint x="220" y="350" as="targetPoint" />
          </mxGeometry>
        </mxCell>
        <mxCell id="WIyWlLk6GJQsqaUBKTNV-7" value="Load Balancer" style="rounded=1;whiteSpace=wrap;html=1;fontSize=12;glass=0;strokeWidth=1;shadow=0;" parent="WIyWlLk6GJQsqaUBKTNV-1" vertex="1">
          <mxGeometry x="354" y="330" width="120" height="40" as="geometry" />
        </mxCell>
        <mxCell id="KfJ8XzD4UMHYxHxAvCoY-7" style="edgeStyle=orthogonalEdgeStyle;rounded=0;orthogonalLoop=1;jettySize=auto;html=1;exitX=1;exitY=0.5;exitDx=0;exitDy=0;" edge="1" parent="WIyWlLk6GJQsqaUBKTNV-1" source="WIyWlLk6GJQsqaUBKTNV-10">
          <mxGeometry relative="1" as="geometry">
            <mxPoint x="480" y="483" as="targetPoint" />
          </mxGeometry>
        </mxCell>
        <mxCell id="KfJ8XzD4UMHYxHxAvCoY-8" style="edgeStyle=orthogonalEdgeStyle;rounded=0;orthogonalLoop=1;jettySize=auto;html=1;exitX=0.5;exitY=1;exitDx=0;exitDy=0;" edge="1" parent="WIyWlLk6GJQsqaUBKTNV-1" source="WIyWlLk6GJQsqaUBKTNV-10">
          <mxGeometry relative="1" as="geometry">
            <mxPoint x="220.25" y="670" as="targetPoint" />
          </mxGeometry>
        </mxCell>
        <mxCell id="WIyWlLk6GJQsqaUBKTNV-10" value="App Layer&lt;br&gt;(eVote API Gateway.&lt;br&gt;Voting App, Admin Portal)" style="rhombus;whiteSpace=wrap;html=1;shadow=0;fontFamily=Helvetica;fontSize=12;align=center;strokeWidth=1;spacing=6;spacingTop=-4;" parent="WIyWlLk6GJQsqaUBKTNV-1" vertex="1">
          <mxGeometry x="124" y="406" width="192.5" height="154" as="geometry" />
        </mxCell>
        <mxCell id="KfJ8XzD4UMHYxHxAvCoY-5" value="" style="shape=actor;whiteSpace=wrap;html=1;" vertex="1" parent="WIyWlLk6GJQsqaUBKTNV-1">
          <mxGeometry x="201" y="10" width="40" height="60" as="geometry" />
        </mxCell>
        <mxCell id="KfJ8XzD4UMHYxHxAvCoY-25" style="edgeStyle=orthogonalEdgeStyle;rounded=0;orthogonalLoop=1;jettySize=auto;html=1;exitX=0.5;exitY=0;exitDx=0;exitDy=0;entryX=1;entryY=0.5;entryDx=0;entryDy=0;" edge="1" parent="WIyWlLk6GJQsqaUBKTNV-1" source="KfJ8XzD4UMHYxHxAvCoY-10" target="WIyWlLk6GJQsqaUBKTNV-7">
          <mxGeometry relative="1" as="geometry">
            <mxPoint x="540" y="350" as="targetPoint" />
          </mxGeometry>
        </mxCell>
        <mxCell id="KfJ8XzD4UMHYxHxAvCoY-10" value="IT Admins(SELinux)&lt;br&gt;Election Officials" style="rounded=0;whiteSpace=wrap;html=1;" vertex="1" parent="WIyWlLk6GJQsqaUBKTNV-1">
          <mxGeometry x="480" y="453" width="120" height="60" as="geometry" />
        </mxCell>
        <mxCell id="KfJ8XzD4UMHYxHxAvCoY-12" style="edgeStyle=orthogonalEdgeStyle;shape=link;rounded=0;orthogonalLoop=1;jettySize=auto;html=1;exitX=0.875;exitY=0.5;exitDx=0;exitDy=0;exitPerimeter=0;" edge="1" parent="WIyWlLk6GJQsqaUBKTNV-1" source="KfJ8XzD4UMHYxHxAvCoY-11">
          <mxGeometry relative="1" as="geometry">
            <mxPoint x="434.63" y="725" as="targetPoint" />
            <mxPoint x="330.005" y="725" as="sourcePoint" />
          </mxGeometry>
        </mxCell>
        <mxCell id="KfJ8XzD4UMHYxHxAvCoY-11" value="Hyperledger Fabric&lt;br&gt;(AWS EC2 &amp;amp; EBS)" style="ellipse;shape=cloud;whiteSpace=wrap;html=1;" vertex="1" parent="WIyWlLk6GJQsqaUBKTNV-1">
          <mxGeometry x="97.5" y="651" width="225" height="150" as="geometry" />
        </mxCell>
        <mxCell id="KfJ8XzD4UMHYxHxAvCoY-13" value="Storage&lt;br&gt;(AWS S3 &amp;amp; EBS)" style="ellipse;shape=cloud;whiteSpace=wrap;html=1;" vertex="1" parent="WIyWlLk6GJQsqaUBKTNV-1">
          <mxGeometry x="410" y="667.5" width="172.5" height="115" as="geometry" />
        </mxCell>
        <mxCell id="KfJ8XzD4UMHYxHxAvCoY-15" value="&lt;font style=&quot;font-size: 11px;&quot;&gt;Monitoring&lt;br&gt;(Splunk, CloudWatch&lt;br&gt;&amp;amp; Permissioned Access)&lt;/font&gt;" style="shape=cylinder3;whiteSpace=wrap;html=1;boundedLbl=1;backgroundOutline=1;size=15;" vertex="1" parent="WIyWlLk6GJQsqaUBKTNV-1">
          <mxGeometry x="333.5" y="540" width="82.5" height="110" as="geometry" />
        </mxCell>
        <mxCell id="KfJ8XzD4UMHYxHxAvCoY-20" value="" style="shape=flexArrow;endArrow=classic;startArrow=classic;html=1;rounded=0;" edge="1" parent="WIyWlLk6GJQsqaUBKTNV-1">
          <mxGeometry width="100" height="100" relative="1" as="geometry">
            <mxPoint x="283.5" y="680" as="sourcePoint" />
            <mxPoint x="333.5" y="630" as="targetPoint" />
          </mxGeometry>
        </mxCell>
        <mxCell id="KfJ8XzD4UMHYxHxAvCoY-21" value="" style="shape=flexArrow;endArrow=classic;startArrow=classic;html=1;rounded=0;" edge="1" parent="WIyWlLk6GJQsqaUBKTNV-1">
          <mxGeometry width="100" height="100" relative="1" as="geometry">
            <mxPoint x="416" y="632" as="sourcePoint" />
            <mxPoint x="466" y="682" as="targetPoint" />
          </mxGeometry>
        </mxCell>
        <mxCell id="KfJ8XzD4UMHYxHxAvCoY-22" value="" style="shape=flexArrow;endArrow=classic;startArrow=classic;html=1;rounded=0;exitX=1.038;exitY=0.262;exitDx=0;exitDy=0;exitPerimeter=0;" edge="1" parent="WIyWlLk6GJQsqaUBKTNV-1" source="KfJ8XzD4UMHYxHxAvCoY-15">
          <mxGeometry width="100" height="100" relative="1" as="geometry">
            <mxPoint x="430" y="561" as="sourcePoint" />
            <mxPoint x="480" y="511" as="targetPoint" />
          </mxGeometry>
        </mxCell>
        <mxCell id="KfJ8XzD4UMHYxHxAvCoY-23" value="" style="shape=flexArrow;endArrow=classic;startArrow=classic;html=1;rounded=0;" edge="1" parent="WIyWlLk6GJQsqaUBKTNV-1">
          <mxGeometry width="100" height="100" relative="1" as="geometry">
            <mxPoint x="283" y="508" as="sourcePoint" />
            <mxPoint x="333" y="558" as="targetPoint" />
          </mxGeometry>
        </mxCell>
      </root>
    </mxGraphModel>
  </diagram>
</mxfile>
